<svg width="800" height="800" viewBox="0 0 800 800" fill="none" xmlns="http://www.w3.org/2000/svg">
<path d="M400.018 750.89C386.12 750.89 373.034 745.495 363.192 735.692L64.1797 436.558C43.9474 416.229 43.9474 383.135 64.1358 362.849L173.671 253.284C180.422 246.507 190.812 244.906 199.317 249.358C207.778 253.788 212.425 263.219 210.76 272.649C209.642 278.921 209.137 283.943 209.137 288.505C209.137 336.489 248.155 376.337 296.138 376.337C344.165 376.337 379.216 336.489 379.216 288.505C379.216 240.455 344.165 201.418 296.138 201.418C291.645 201.418 286.647 201.944 280.378 203.041C270.864 204.795 261.527 200.08 257.099 191.615C252.671 183.106 254.271 172.711 261.022 165.956L363.148 63.7593C382.92 44.0656 417.137 44.1095 436.822 63.7155L511.591 138.565C527.198 90.0322 572.748 54.7897 626.343 54.7897C692.805 54.7897 746.882 108.915 746.882 175.43C746.882 229.073 711.7 274.622 663.147 290.215L735.79 362.849C756.066 383.201 756.066 416.273 735.812 436.602L436.844 735.736C426.958 745.605 413.893 751 399.996 751L400.018 750.89ZM169.089 319.865L95.1747 393.794C91.9963 396.996 91.9963 402.325 95.2186 405.57L394.121 704.639C398.308 708.784 401.618 708.849 405.892 704.595L704.795 405.527C707.995 402.281 707.995 397.039 704.773 393.772L599.359 288.373C592.761 281.772 591.052 271.706 595.107 263.306C599.162 254.907 608.018 249.929 617.378 251.091L620.71 251.53C622.551 251.771 624.392 252.078 626.321 252.078C668.627 252.078 703.02 217.669 703.02 175.386C703.02 133.038 668.605 98.6071 626.321 98.6071C584.037 98.6071 549.645 133.06 549.645 175.386C549.645 177.141 549.908 178.851 550.149 180.562L550.609 184.466C551.595 193.72 546.663 202.58 538.268 206.594C529.938 210.563 519.899 208.874 513.345 202.295L405.849 94.6815C401.64 90.5147 398.352 90.4709 394.077 94.7254L327.55 161.285C384.608 175.408 423.034 227.055 423.034 288.439C423.034 360.613 368.277 420.11 296.116 420.11C234.784 420.11 183.184 376.885 169.089 319.865Z" fill="#FFC722"/>
<path d="M370.701 569.705C371.695 569.403 377.316 566.549 383.137 563.197C402.341 552.288 416.768 544.679 421.193 543.123C426.513 541.266 437.889 540.986 443.349 542.664C445.533 543.355 457.685 549.845 471.771 557.874C485.311 565.556 496.917 571.997 497.513 571.996C498.804 572.092 500.647 570.543 500.999 568.998C501.099 568.5 495.861 558.654 489.385 547.169C474.405 520.867 472.478 517.137 471.399 512.061C470.173 506.338 470.745 497.024 472.597 491.79C473.898 488.301 491.324 455.535 498.561 443.016C499.41 441.57 500.11 439.875 500.161 439.327C500.314 437.783 498.332 435.896 496.792 436.049C496.146 436.101 485.052 442.057 472.217 449.264C455.65 458.522 447.293 462.827 443.514 464.033C437.051 466.043 427.911 466.068 421.707 464.043C417.935 462.759 400.228 453.097 376.224 439.12C372.752 437.137 369.131 435.305 368.088 435.058C366.102 434.666 363.863 436.315 364.007 438.157C364.104 438.754 370.382 450.041 377.946 463.217C393.569 490.364 395.445 494.741 395.42 503.704C395.345 513.017 394.245 515.609 375.275 549.922C370.632 558.351 366.737 565.831 366.686 566.479C366.482 568.471 368.663 570.159 370.701 569.705Z" fill="#3EA9E1"/>
</svg>
