<svg width="800" height="800" viewBox="0 0 800 800" fill="none" xmlns="http://www.w3.org/2000/svg">
<g clip-path="url(#clip0_454_77)">
<path d="M222.917 354.167C295.404 354.167 354.167 295.404 354.167 222.917C354.167 150.429 295.404 91.6667 222.917 91.6667C150.429 91.6667 91.6666 150.429 91.6666 222.917C91.6666 295.404 150.429 354.167 222.917 354.167Z" stroke="#3EA9E1" stroke-width="50"/>
<path d="M222.917 708.333C295.404 708.333 354.167 649.571 354.167 577.083C354.167 504.596 295.404 445.833 222.917 445.833C150.429 445.833 91.6666 504.596 91.6666 577.083C91.6666 649.571 150.429 708.333 222.917 708.333Z" stroke="#FF751F" stroke-width="50"/>
<path d="M577.083 708.333C649.571 708.333 708.333 649.571 708.333 577.083C708.333 504.596 649.571 445.833 577.083 445.833C504.596 445.833 445.833 504.596 445.833 577.083C445.833 649.571 504.596 708.333 577.083 708.333Z" stroke="white" stroke-width="50"/>
<path d="M450.272 107.472C450.833 109.323 456.145 119.785 462.385 130.62C482.69 166.365 496.852 193.217 499.748 201.454C503.205 211.357 503.727 232.531 500.603 242.693C499.317 246.758 487.236 269.378 472.293 295.595C457.995 320.798 446.005 342.4 446.008 343.51C445.829 345.913 448.712 349.342 451.587 349.997C452.515 350.185 470.84 340.434 492.218 328.38C541.175 300.499 548.116 296.912 557.565 294.904C568.218 292.621 585.554 293.686 595.296 297.133C601.791 299.555 662.777 331.99 686.079 345.46C688.771 347.04 691.926 348.343 692.946 348.438C695.82 348.723 699.333 345.034 699.047 342.167C698.951 340.965 687.864 320.316 674.451 296.425C657.219 265.589 649.205 250.034 646.961 243.001C643.22 230.971 643.173 213.958 646.942 202.411C649.333 195.391 667.317 162.432 693.332 117.752C697.022 111.29 700.433 104.55 700.891 102.61C701.623 98.9133 698.552 94.7443 695.124 95.0123C694.012 95.1942 673.003 106.879 648.479 120.958C597.951 150.038 589.804 153.529 573.119 153.483C555.786 153.343 550.961 151.296 487.093 115.987C471.405 107.345 457.482 100.095 456.276 99.9995C452.568 99.6195 449.427 103.679 450.272 107.472Z" fill="#FFC722"/>
</g>
<defs>
<clipPath id="clip0_454_77">
<rect width="800" height="800" fill="white"/>
</clipPath>
</defs>
</svg>
