<svg width="800" height="800" viewBox="0 0 800 800" fill="none" xmlns="http://www.w3.org/2000/svg">
<path d="M133.333 266.667C133.333 172.386 133.334 125.245 162.623 95.956C191.912 66.6667 239.052 66.6667 333.333 66.6667H466.667C560.947 66.6667 608.087 66.6667 637.377 95.956C666.667 125.245 666.667 172.386 666.667 266.667V533.333C666.667 627.613 666.667 674.753 637.377 704.043C608.087 733.333 560.947 733.333 466.667 733.333H333.333C239.052 733.333 191.912 733.333 162.623 704.043C133.334 674.753 133.333 627.613 133.333 533.333V266.667Z" stroke="#3EA9E1" stroke-width="50"/>
<path d="M663.26 533.333H263.259C232.26 533.333 216.761 533.333 204.044 536.74C169.535 545.987 142.58 572.943 133.333 607.45" stroke="#3EA9E1" stroke-width="50"/>
<path d="M266.667 233.333H533.333" stroke="white" stroke-width="50" stroke-linecap="round"/>
<path d="M266.667 350H433.333" stroke="#FFC722" stroke-width="50" stroke-linecap="round"/>
<path d="M433.333 533.333V651.03C433.333 660.217 433.333 664.81 430.17 666.667C427.01 668.523 422.687 666.47 414.037 662.36L372.63 642.693C369.703 641.303 368.24 640.607 366.667 640.607C365.093 640.607 363.63 641.303 360.703 642.693L319.296 662.36C310.648 666.47 306.324 668.523 303.162 666.667C300 664.81 300 660.217 300 651.03V548.333" stroke="#3EA9E1" stroke-width="50" stroke-linecap="round"/>
</svg>
