<svg width="800" height="800" viewBox="0 0 800 800" fill="none" xmlns="http://www.w3.org/2000/svg">
<path d="M400 800C248.323 800 124.912 676.589 124.912 524.912C124.912 373.235 248.323 249.824 400 249.824C551.677 249.824 675.088 373.235 675.088 524.912C675.088 676.589 551.677 800 400 800Z" fill="#FFC722"/>
<path d="M400 737.123C517.201 737.123 612.21 642.113 612.21 524.912C612.21 407.712 517.201 312.702 400 312.702C282.799 312.702 187.789 407.712 187.789 524.912C187.789 642.113 282.799 737.123 400 737.123Z" fill="#FFEFBE"/>
<path d="M400 249.825C430.891 249.825 460.505 255.172 488.253 264.618L647.018 0H506.667L354.302 253.937C369.193 251.439 384.407 249.825 400 249.825Z" fill="#3EA9E1"/>
<path d="M354.302 253.937L401.403 175.439L296.14 0H155.789L314.049 263.761C327.06 259.467 340.519 256.267 354.302 253.937Z" fill="#1E2844"/>
<path d="M303.367 433.831C303.81 435.29 307.997 443.537 312.915 452.077C328.92 480.253 340.084 501.418 342.366 507.911C345.091 515.716 345.502 532.407 343.04 540.417C342.026 543.621 332.504 561.451 320.725 582.116C309.455 601.982 300.004 619.01 300.006 619.884C299.865 621.779 302.138 624.482 304.404 624.998C305.135 625.146 319.58 617.46 336.431 607.959C375.02 585.982 380.492 583.154 387.94 581.571C396.337 579.772 410.001 580.611 417.68 583.329C422.8 585.238 470.871 610.804 489.239 621.422C491.361 622.667 493.848 623.694 494.652 623.769C496.917 623.994 499.686 621.086 499.46 618.826C499.385 617.878 490.646 601.602 480.073 582.77C466.49 558.464 460.173 546.203 458.404 540.659C455.456 531.177 455.419 517.767 458.39 508.665C460.274 503.131 474.449 477.152 494.956 441.934C497.864 436.841 500.553 431.528 500.914 429.998C501.491 427.085 499.071 423.798 496.368 424.01C495.492 424.153 478.932 433.364 459.601 444.461C419.773 467.383 413.351 470.134 400.2 470.098C386.537 469.988 382.734 468.374 332.391 440.543C320.025 433.731 309.05 428.016 308.1 427.941C305.177 427.641 302.702 430.841 303.367 433.831Z" fill="#FF8A00"/>
</svg>
