<svg width="800" height="800" viewBox="0 0 800 800" fill="none" xmlns="http://www.w3.org/2000/svg">
<g clip-path="url(#clip0_454_82)">
<path d="M200 725C166.848 725 135.054 711.83 111.612 688.388C88.1696 664.946 75 633.152 75 600L75 295.233C75 272.186 84.1555 250.083 100.452 233.786C116.749 217.489 138.853 208.333 161.9 208.333H208.333V166.667C208.369 142.366 218.038 119.071 235.221 101.887C252.404 84.7043 275.699 75.0353 300 75H633.333C657.637 75.0265 680.937 84.6927 698.122 101.878C715.307 119.063 724.974 142.363 725 166.667V500C724.982 524.306 715.319 547.612 698.132 564.799C680.945 581.986 657.639 591.649 633.333 591.667H591.667V638.1C591.667 649.515 589.418 660.817 585.049 671.363C580.679 681.908 574.275 691.489 566.202 699.559C558.129 707.629 548.546 714.03 537.999 718.395C527.452 722.76 516.148 725.004 504.733 725H200ZM125 295.233V600C125 619.891 132.902 638.968 146.967 653.033C161.032 667.098 180.109 675 200 675H504.733C514.523 675 523.912 671.113 530.837 664.194C537.763 657.275 541.658 647.89 541.667 638.1V591.667H300C275.697 591.64 252.396 581.974 235.211 564.789C218.026 547.604 208.36 524.303 208.333 500V258.333H161.9C152.114 258.333 142.728 262.221 135.808 269.141C128.888 276.061 125 285.447 125 295.233ZM258.333 166.667V500C258.351 511.045 262.746 521.633 270.557 529.443C278.367 537.253 288.955 541.649 300 541.667H633.333C644.381 541.658 654.974 537.265 662.786 529.453C670.598 521.641 674.991 511.048 675 500V166.667C674.991 155.619 670.598 145.026 662.786 137.214C654.974 129.402 644.381 125.009 633.333 125H300C288.955 125.018 278.367 129.413 270.557 137.223C262.746 145.034 258.351 155.621 258.333 166.667ZM383.333 425C376.703 425 370.344 422.366 365.656 417.678C360.967 412.989 358.333 406.63 358.333 400C358.333 393.37 360.967 387.011 365.656 382.322C370.344 377.634 376.703 375 383.333 375H550C556.63 375 562.989 377.634 567.678 382.322C572.366 387.011 575 393.37 575 400C575 406.63 572.366 412.989 567.678 417.678C562.989 422.366 556.63 425 550 425H383.333Z" fill="#3EA9E1"/>
<path d="M400.774 322.778C401.768 322.476 407.389 319.622 413.21 316.27C432.414 305.361 446.84 297.752 451.266 296.196C456.586 294.339 467.962 294.059 473.422 295.737C475.605 296.428 487.758 302.918 501.844 310.947C515.384 318.628 526.99 325.07 527.586 325.068C528.877 325.165 530.719 323.616 531.071 322.071C531.172 321.573 525.933 311.727 519.458 300.242C504.478 273.94 502.551 270.21 501.472 265.134C500.246 259.41 500.818 250.097 502.67 244.863C503.971 241.373 521.397 208.608 528.634 196.089C529.482 194.643 530.182 192.948 530.234 192.4C530.387 190.855 528.405 188.969 526.865 189.122C526.219 189.174 515.125 195.13 502.289 202.336C485.723 211.594 477.365 215.9 473.587 217.106C467.124 219.115 457.984 219.14 451.78 217.116C448.008 215.831 430.301 206.169 406.297 192.192C402.825 190.21 399.204 188.377 398.161 188.131C396.175 187.738 393.935 189.388 394.079 191.23C394.177 191.827 400.455 203.114 408.019 216.29C423.642 243.436 425.518 247.814 425.493 256.777C425.418 266.09 424.318 268.682 405.348 302.995C400.705 311.424 396.81 318.904 396.759 319.552C396.555 321.544 398.736 323.231 400.774 322.778Z" fill="#FFC722"/>
</g>
<defs>
<clipPath id="clip0_454_82">
<rect width="800" height="800" fill="white"/>
</clipPath>
</defs>
</svg>
