<svg width="859" height="817" viewBox="0 0 859 817" fill="none" xmlns="http://www.w3.org/2000/svg">
<path d="M632.506 2.22992C631.796 3.55001 628.954 12.1813 626.417 21.5235C617.892 52.1901 610.889 74.6316 607.946 80.7243C604.394 88.0355 593.027 99.9163 585.72 103.775C582.777 105.298 563.697 111.086 541.065 117.281C519.346 123.272 500.875 128.552 500.266 129.161C498.846 130.38 498.541 133.832 499.759 135.762C500.165 136.371 515.591 141.042 533.961 146.119C576.18 157.594 581.965 159.422 588.257 163.484C595.361 168.053 604.292 178.106 607.743 185.316C609.976 190.19 625.605 241.267 630.984 261.373C631.593 263.709 632.608 266.146 633.115 266.755C634.536 268.481 638.494 268.38 639.915 266.653C640.524 265.943 645.801 248.578 651.586 228.168C659.096 201.868 663.257 188.971 665.896 183.894C670.463 175.263 679.8 165.921 688.223 161.656C693.399 159.117 721.41 150.892 760.28 140.636C765.862 139.113 771.444 137.285 772.763 136.473C775.199 134.848 775.808 130.888 773.778 129.161C773.068 128.654 755.104 123.576 733.893 117.89C690.152 106.212 683.758 103.673 674.624 94.5344C665.185 84.9892 663.663 81.232 648.034 27.0069C644.177 13.7045 640.524 2.12838 639.915 1.41756C638.088 -0.816429 634.13 -0.308703 632.506 2.22992Z" fill="black"/>
<path d="M852.354 816.297L855.227 812.603C856.802 810.548 857.763 807.737 858.003 805.026C858.243 802.314 857.762 799.715 856.468 798.081H856.467C856.351 797.933 856.142 797.736 855.844 797.497C855.547 797.259 855.165 796.982 854.711 796.67C853.802 796.047 852.601 795.29 851.198 794.446C848.743 792.97 845.668 791.23 842.446 789.481L841.06 788.732C799.024 767.093 774.492 740.628 697.481 633.033C673.234 599.28 589.472 483.555 565.362 450.353L565.361 450.352C555.085 435.671 439.048 272.046 401.369 219.624L397.974 214.906C381.028 191.348 358.571 160.074 348.101 145.333C337.631 130.593 325.511 114.616 321.379 109.795C306.372 92.8604 283.927 79.2269 258.174 71.377H258.173L245.782 67.5225L135.304 67.1094C80.4714 66.9028 52.8493 66.7995 38.5742 67.1094C31.4357 67.2644 27.6391 67.5226 25.4473 67.9219C24.3524 68.1214 23.6615 68.3555 23.1562 68.627C22.652 68.8981 22.3286 69.2086 21.9678 69.5694C20.536 71.0012 19.6442 73.3607 19.3867 75.9005C19.1294 78.4392 19.5066 81.1471 20.6016 83.2686L20.6025 83.2696C20.6839 83.4321 20.8477 83.6392 21.0908 83.8858C21.333 84.1315 21.6502 84.4126 22.0332 84.7237C22.7994 85.3461 23.8269 86.0858 25.04 86.8946C27.4662 88.512 30.6325 90.4062 33.9375 92.1964C62.0522 107.081 88.5115 131.059 108.769 159.722L108.77 159.723C115.107 168.815 139.905 203.256 163.738 236.183C209.064 298.867 248.5 353.63 276.863 393.187C291.045 412.965 302.458 428.942 310.455 440.207C314.453 445.839 317.598 450.293 319.808 453.456C322.015 456.615 323.292 458.49 323.553 458.96L323.555 458.963C324.594 461.042 325.077 463.74 325.008 466.503C324.939 469.266 324.318 472.1 323.142 474.452L323.141 474.454L322.89 474.893C322.208 476.027 320.858 477.919 319.156 480.163C317.21 482.73 314.798 485.762 312.387 488.655C289.655 515.796 232.757 582.064 205.754 613.199H205.753C189.083 632.211 165.388 659.489 152.851 673.817C126.812 703.654 87.0208 744.705 69.3535 759.782L68.5293 760.481C48.9615 777.017 31.4592 787.903 9.27246 797.55L9.27148 797.551C4.58991 799.547 1.75123 801.64 0.625977 803.959C-0.494785 806.269 0.076169 808.825 2.27344 811.777L5.00781 815.471L169.332 815.884C232.912 816.022 274.105 815.987 299.592 815.763C312.335 815.651 321.151 815.492 326.876 815.283C329.739 815.179 331.828 815.062 333.248 814.933C333.958 814.868 334.5 814.8 334.887 814.73C335.08 814.694 335.234 814.658 335.35 814.622C335.408 814.604 335.456 814.586 335.493 814.569L335.576 814.521C341.327 809.865 340.225 800.837 333.665 798.24C311.341 789.283 298.512 780.045 291.199 767.489C279.758 747.914 268.426 715.996 289.82 676.359L289.822 676.357C333.632 601.967 355.445 568.462 376.76 542.575L376.773 542.559L376.795 542.554C378.939 542 380.866 541.904 383.031 542.761C385.193 543.616 387.586 545.42 390.671 548.651C396.84 555.114 405.798 567.311 421.227 589.146H421.228C426.738 596.998 445.887 623.449 463.659 648.109C481.431 672.77 506.642 707.763 519.593 725.948C546.869 763.97 557.473 775.398 578.954 789.581C595.618 800.599 608.562 806.52 627.979 811.753L641.195 815.333L746.719 815.884L852.354 816.297Z" fill="black" stroke="black" stroke-width="0.133333"/>
<path d="M504.5 340.5C493.129 323.617 503 337.473 474.5 300.5L582 195C582 195 507 337.5 504.5 340.5Z" fill="black"/>
</svg>
