<svg width="877" height="319" viewBox="0 0 877 319" fill="none" xmlns="http://www.w3.org/2000/svg">
<path d="M225.418 275.879C230.789 277.832 238.927 278.809 249.832 278.809C260.737 278.809 269.852 277.507 277.176 274.902V313.965C273.758 314.779 268.794 315.267 262.283 315.43L246.902 315.918C243.484 315.918 240.88 315.918 239.09 315.918C207.677 315.918 184.484 305.664 169.51 285.156C157.465 268.555 151.443 246.582 151.443 219.238V99.8535H115.311V76.9043L151.443 62.5L163.162 0H200.271V62.5H278.396V99.8535H200.271V218.994C200.271 250.895 208.654 269.857 225.418 275.879Z" fill="#3EA9E1"/>
<path d="M294.568 269.531C289.197 260.254 284.884 249.349 281.629 236.816C278.536 224.284 276.99 207.926 276.99 187.744C276.99 167.562 281.303 149.007 289.93 132.08C298.719 114.99 310.112 100.993 324.109 90.0879C351.29 69.0918 385.063 58.5938 425.428 58.5938C446.424 58.5938 462.293 59.082 473.035 60.0586C473.035 60.0586 480.929 60.8724 496.717 62.5V314.453H452.771L450.818 285.4C441.053 298.421 426.16 308.105 406.141 314.453C398.491 316.895 390.597 318.115 382.459 318.115C374.484 318.115 366.59 317.301 358.777 315.674C350.965 314.046 343.152 311.361 335.34 307.617C327.69 303.874 320.366 298.91 313.367 292.725C306.368 286.377 300.102 278.646 294.568 269.531ZM447.889 98.3887C437.472 97.0866 427.055 96.4355 416.639 96.4355C406.385 96.4355 395.398 98.3073 383.68 102.051C371.961 105.632 361.951 111.328 353.65 119.141C336.398 135.417 327.771 160.238 327.771 193.604C327.771 225.179 335.177 248.535 349.988 263.672C361.219 274.902 374.728 280.518 390.516 280.518C410.861 280.518 427.625 273.112 440.809 258.301C444.064 254.557 446.424 251.221 447.889 248.291V98.3887Z" fill="#3EA9E1"/>
<path d="M674.998 107.178C666.046 104.574 655.304 103.271 642.771 103.271C630.402 103.271 620.229 104.574 612.254 107.178C604.279 109.619 597.28 112.63 591.258 116.211C580.19 122.721 572.133 130.046 567.088 138.184V314.453H518.26V62.5H565.135L567.088 97.4121C579.295 82.1126 597.117 70.638 620.555 62.9883C629.018 60.0586 638.702 58.5938 649.607 58.5938C660.512 58.5938 668.976 59.4076 674.998 61.0352V107.178Z" fill="#3EA9E1"/>
<path d="M674.568 269.531C669.197 260.254 664.884 249.349 661.629 236.816C658.536 224.284 656.99 207.926 656.99 187.744C656.99 167.562 661.303 149.007 669.93 132.08C678.719 114.99 690.112 100.993 704.109 90.0879C731.29 69.0918 765.063 58.5938 805.428 58.5938C826.424 58.5938 842.293 59.082 853.035 60.0586C853.035 60.0586 860.929 60.8724 876.717 62.5V314.453H832.771L830.818 285.4C821.053 298.421 806.16 308.105 786.141 314.453C778.491 316.895 770.597 318.115 762.459 318.115C754.484 318.115 746.59 317.301 738.777 315.674C730.965 314.046 723.152 311.361 715.34 307.617C707.69 303.874 700.366 298.91 693.367 292.725C686.368 286.377 680.102 278.646 674.568 269.531ZM827.889 98.3887C817.472 97.0866 807.055 96.4355 796.639 96.4355C786.385 96.4355 775.398 98.3073 763.68 102.051C751.961 105.632 741.951 111.328 733.65 119.141C716.398 135.417 707.771 160.238 707.771 193.604C707.771 225.179 715.177 248.535 729.988 263.672C741.219 274.902 754.728 280.518 770.516 280.518C790.861 280.518 807.625 273.112 820.809 258.301C824.064 254.557 826.424 251.221 827.889 248.291V98.3887Z" fill="#3EA9E1"/>
<path d="M2.26169 189.603C2.55881 190.583 5.37107 196.122 8.67458 201.858C19.424 220.782 26.9218 234.997 28.455 239.358C30.285 244.601 30.5612 255.811 28.9076 261.191C28.2265 263.342 21.8311 275.318 13.9197 289.197C6.35038 302.54 0.00257294 313.977 0.00418645 314.564C-0.0904602 315.836 1.43572 317.652 2.95788 317.999C3.44886 318.098 13.1507 312.936 24.4686 306.554C50.3865 291.794 54.0616 289.895 59.064 288.831C64.7038 287.623 73.8816 288.187 79.0391 290.012C82.4775 291.294 114.764 308.465 127.101 315.597C128.526 316.433 130.196 317.123 130.736 317.173C132.258 317.324 134.117 315.371 133.966 313.853C133.915 313.217 128.046 302.285 120.945 289.637C111.822 273.312 107.579 265.077 106.391 261.353C104.411 254.985 104.386 245.978 106.381 239.865C107.647 236.148 117.168 218.699 130.941 195.045C132.894 191.624 134.7 188.056 134.942 187.029C135.33 185.072 133.704 182.865 131.889 183.007C131.3 183.103 120.178 189.289 107.195 196.743C80.4445 212.138 76.1313 213.986 67.2985 213.962C58.122 213.888 55.5674 212.804 21.7552 194.111C13.4497 189.536 6.0785 185.697 5.44044 185.647C3.47705 185.446 1.81454 187.595 2.26169 189.603Z" fill="#FFC722"/>
</svg>
