<svg width="824" height="805" viewBox="0 0 824 805" fill="none" xmlns="http://www.w3.org/2000/svg">
<path d="M126.929 135.356C128.229 139.652 140.529 163.94 154.979 189.091C201.996 272.069 234.791 334.402 241.497 353.523C249.501 376.51 250.709 425.665 243.476 449.254C240.497 458.69 212.524 511.199 177.921 572.06C144.813 630.564 117.048 680.712 117.055 683.287C116.641 688.867 123.316 696.826 129.974 698.347C132.122 698.782 174.557 676.147 224.061 648.166C337.424 583.443 353.499 575.116 375.379 570.454C400.047 565.156 440.19 567.627 462.748 575.63C477.788 581.252 619.008 656.546 672.967 687.815C679.201 691.481 686.507 694.506 688.869 694.727C695.524 695.389 703.657 686.826 702.995 680.171C702.772 677.38 677.1 629.447 646.041 573.986C606.137 502.404 587.58 466.295 582.384 449.968C573.722 422.042 573.614 382.55 582.34 355.744C587.876 339.447 629.52 262.938 689.762 159.22C698.307 144.219 706.205 128.573 707.266 124.068C708.959 115.488 701.85 105.81 693.91 106.432C691.336 106.854 642.689 133.979 585.9 166.662C468.896 234.166 450.03 242.27 411.396 242.164C371.259 241.84 360.085 237.087 212.193 155.121C175.865 135.061 143.624 118.231 140.833 118.009C132.245 117.127 124.973 126.551 126.929 135.356Z" fill="#FFC722"/>
<path d="M398.564 6.69433C396.443 10.6573 387.96 36.5691 380.385 64.6148C354.935 156.678 334.029 224.048 325.243 242.339C314.638 264.288 280.705 299.955 258.89 311.539C250.104 316.111 193.143 333.488 125.579 352.083C60.7411 370.069 5.59876 385.921 3.78088 387.75C-0.460839 391.408 -1.36978 401.773 2.26598 407.565C3.4779 409.394 49.5309 423.417 104.37 438.659C230.41 473.106 247.68 478.594 266.465 490.787C287.673 504.505 314.335 534.685 324.637 556.329C331.302 570.961 377.961 724.298 394.019 784.657C395.837 791.669 398.867 798.985 400.382 800.814C404.623 805.996 416.44 805.692 420.681 800.509C422.499 798.375 438.254 746.247 455.524 684.973C477.945 606.018 490.367 567.303 498.244 552.061C511.878 526.149 539.753 498.104 564.9 485.3C580.352 477.679 663.974 452.987 780.016 422.197C796.68 417.625 813.344 412.137 817.282 409.699C824.554 404.821 826.372 392.932 820.312 387.75C818.191 386.226 764.564 370.983 701.241 353.912C570.657 318.855 551.569 311.234 524.301 283.798C496.123 255.143 491.579 243.863 444.92 81.0764C433.407 41.1418 422.499 6.38949 420.681 4.25557C415.228 -2.451 403.412 -0.926781 398.564 6.69433Z" fill="#3EA9E1"/>
</svg>
